<svg height="512pt" viewBox="0 0 512 512" width="512pt" xmlns="http://www.w3.org/2000/svg"><path d="m209.65625 294.992188h284.6875v193.472656h-284.6875zm0 0" fill="#3b97d3"/><path d="m212.234375 92.011719h282.109375v196.359375h-282.109375zm0 0" fill="#3b97d3"/><path d="m17.65625 32.371094h211.859375v457.558594h-211.859375zm0 0" fill="#2980ba"/><path d="m17.65625 0h211.859375c9.753906 0 17.65625 7.90625 17.65625 17.65625v8.828125c0 9.75-7.902344 17.652344-17.65625 17.652344h-211.859375c-9.75 0-17.65625-7.902344-17.65625-17.652344v-8.828125c0-9.75 7.90625-17.65625 17.65625-17.65625zm0 0" fill="#c03a2b"/><path d="m88.277344 308.964844h70.621094c9.75 0 17.652343 7.90625 17.652343 17.65625v154.394531h-105.929687v-154.394531c0-9.75 7.902344-17.65625 17.65625-17.65625zm0 0" fill="#67b9cc"/><path d="m150.070312 406.070312c-2.339843-.035156-4.578124-.949218-6.269531-2.5625-.796875-.84375-1.425781-1.832031-1.851562-2.910156-.941407-2.140625-.941407-4.574218 0-6.710937.425781-1.082031 1.054687-2.070313 1.851562-2.914063.859375-.777344 1.84375-1.40625 2.914063-1.851562 2.148437-.882813 4.558594-.882813 6.707031 0 2.21875.800781 3.964844 2.546875 4.769531 4.765625.453125 1.0625.691406 2.199219.707032 3.355469-.035157 2.335937-.949219 4.574218-2.5625 6.265624-.859376.78125-1.84375 1.40625-2.914063 1.855469-1.046875.496094-2.195313.734375-3.351563.707031zm0 0" fill="#41767f"/><path d="m105.929688 97.101562v114.761719h-44.136719c-4.875 0-8.828125-3.953125-8.828125-8.828125v-97.105468c0-4.875 3.953125-8.828126 8.828125-8.828126zm0 0" fill="#b0d3f0"/><path d="m194.207031 141.242188v61.792968c0 4.875-3.953125 8.828125-8.828125 8.828125h-79.449218v-70.621093zm0 0" fill="#90bae1"/><path d="m194.207031 105.929688v35.3125h-88.277343v-44.140626h79.449218c4.875 0 8.828125 3.953126 8.828125 8.828126zm0 0" fill="#ecf0f1"/><path d="m344.277344 141.242188v97.101562h-44.140625c-4.875 0-8.828125-3.949219-8.828125-8.828125v-79.445313c0-4.875 3.953125-8.828124 8.828125-8.828124zm0 0" fill="#b0d3f0"/><path d="m432.550781 185.378906v44.136719c0 4.878906-3.953125 8.828125-8.828125 8.828125h-79.445312v-52.964844zm0 0" fill="#90bae1"/><path d="m432.550781 150.070312v35.308594h-88.273437v-44.136718h79.445312c4.875 0 8.828125 3.953124 8.828125 8.828124zm0 0" fill="#ecf0f1"/><path d="m512 282.484375v22.066406c0 2.4375-1.976562 4.414063-4.414062 4.414063h-278.070313v-35.308594h273.65625c4.875 0 8.828125 3.949219 8.828125 8.828125zm0 0" fill="#cc4b4c"/><path d="m229.515625 70.621094h273.65625c4.875 0 8.828125 3.953125 8.828125 8.828125v22.066406c0 2.4375-1.976562 4.414063-4.414062 4.414063h-278.070313zm0 0" fill="#cc4b4c"/><path d="m459.035156 362.320312v117.308594h-194.207031v-117.308594c-.078125-9.847656 7.808594-17.910156 17.65625-18.042968h158.894531c9.847656.132812 17.734375 8.195312 17.65625 18.042968zm0 0" fill="#9bc8c2"/><g fill="#41767f"><path d="m308.964844 379.585938c0 4.875-3.953125 8.828124-8.828125 8.828124h-35.308594v-17.65625h35.308594c4.875 0 8.828125 3.953126 8.828125 8.828126zm0 0"/><path d="m459.035156 370.757812v17.65625h-123.585937c-4.875 0-8.828125-3.953124-8.828125-8.828124s3.953125-8.828126 8.828125-8.828126zm0 0"/><path d="m406.070312 423.722656c0 4.875-3.953124 8.828125-8.828124 8.828125h-132.414063v-17.652343h132.414063c4.875 0 8.828124 3.949218 8.828124 8.824218zm0 0"/></g><path d="m8.828125 476.691406h494.34375c4.875 0 8.828125 3.949219 8.828125 8.824219v17.65625c0 4.875-3.953125 8.828125-8.828125 8.828125h-494.34375c-4.875 0-8.828125-3.953125-8.828125-8.828125v-17.65625c0-4.875 3.953125-8.824219 8.828125-8.824219zm0 0" fill="#7f8c8d"/></svg>